<?xml version="1.0" encoding="utf-8"?>
<!-- Generator: Adobe Illustrator 18.1.1, SVG Export Plug-In . SVG Version: 6.00 Build 0)  -->
<svg version="1.1" id="Ebene_1" xmlns="http://www.w3.org/2000/svg" xmlns:xlink="http://www.w3.org/1999/xlink" x="0px" y="0px"
	 viewBox="0 0 467.7 198.4" enable-background="new 0 0 467.7 198.4" xml:space="preserve">
<g>
	<defs>
		<rect id="SVGID_1_" y="3.3" width="464" height="193.1"/>
	</defs>
	<clipPath id="SVGID_2_">
		<use xlink:href="#SVGID_1_"  overflow="visible"/>
	</clipPath>
	<g clip-path="url(#SVGID_2_)">
		<path fill="#1A171B" d="M70.9,82.3c0,5.7-0.7,10.9-2.2,15.7c-1.5,4.7-3.7,8.8-6.6,12.2c-2.9,3.4-6.5,6-10.8,7.9
			c-4.3,1.9-9.3,2.8-14.9,2.8c-2.3,0-4.6-0.2-6.8-0.6c-2.3-0.4-4-0.8-5.3-1.2v30.6h-15V49.4c2.7-1.4,6.3-2.6,10.9-3.7
			c4.6-1.1,9.5-1.6,14.6-1.6c11.7,0,20.6,3.4,26.8,10.1C67.8,61.1,70.9,70.4,70.9,82.3z M55.9,82.3c0-8.1-1.8-14.5-5.3-19.2
			c-3.5-4.7-8.7-7-15.5-7c-2.1,0-4.2,0.2-6.2,0.6c-2,0.4-3.5,0.9-4.6,1.3v49.5c1,0.5,2.6,0.9,4.6,1.2c2.1,0.3,4.1,0.5,6.1,0.5
			c3.4,0,6.4-0.7,9-2c2.6-1.3,4.8-3.2,6.6-5.6c1.7-2.4,3.1-5.2,3.9-8.6C55.5,89.7,55.9,86.2,55.9,82.3z"/>
		<path fill="#1A171B" d="M140.9,116.4c-1.4,0.7-3.1,1.4-5,2.1c-2,0.6-4.1,1.2-6.5,1.7s-4.8,0.8-7.5,1.1c-2.6,0.3-5.2,0.4-7.8,0.4
			c-10.8,0-18.8-2-24.1-6.1c-5.3-4.1-8-9.8-8-17.2c0-5.2,1.3-9.3,3.8-12.6c2.5-3.2,5.9-5.7,10.1-7.6c4.2-1.8,8.9-3.1,14.3-3.9
			c5.3-0.8,10.8-1.3,16.4-1.6v-4.7c0-4.7-1.4-8-4.3-9.9c-2.9-1.9-6.7-2.8-11.5-2.8c-1.7,0-3.6,0.1-5.5,0.4c-1.9,0.3-3.7,0.6-5.6,1
			c-1.8,0.4-3.6,0.9-5.2,1.4c-1.7,0.6-3.1,1.1-4.3,1.7l-3.9-10.3c2.9-1.3,6.8-2.5,11.5-3.6c4.7-1.1,9.5-1.7,14.5-1.7
			c4.4,0,8.4,0.5,11.9,1.4c3.5,0.9,6.6,2.4,9,4.3c2.5,2,4.4,4.6,5.7,7.8c1.3,3.2,1.9,7.1,1.9,11.7V116.4z M126.5,82.7
			c-3.8,0.2-7.5,0.5-11.1,0.9c-3.6,0.4-6.9,1.1-9.7,2.1c-2.9,1-5.2,2.5-6.9,4.4c-1.7,1.9-2.6,4.6-2.6,7.9c0,4,1.5,7.1,4.4,9.3
			c2.9,2.3,7.3,3.4,13.1,3.4c2.4,0,4.8-0.2,7.3-0.6c2.5-0.4,4.3-0.8,5.5-1.4V82.7z"/>
		<path fill="#1A171B" d="M216.5,119.8c0,10.2-2.8,18-8.5,23.3c-5.7,5.3-13.4,8-23.3,8c-5.5,0-10.5-0.6-15-1.7
			c-4.5-1.1-8.3-2.4-11.5-4l4.4-11.9c2.4,1.3,5.4,2.4,9.1,3.3c3.7,0.9,7.5,1.4,11.6,1.4c6.2,0,10.7-1.6,13.7-4.7
			c3-3.1,4.5-7.7,4.5-13.8v-5.5c-1.9,0.9-4.3,1.7-7,2.2c-2.7,0.6-5.4,0.8-8.1,0.8c-4.7,0-9-0.8-12.9-2.3c-3.9-1.6-7.3-3.9-10.1-6.9
			c-2.8-3-5-6.8-6.6-11.2c-1.6-4.4-2.3-9.4-2.3-15c0-6.4,0.9-12,2.7-16.7c1.8-4.7,4.3-8.6,7.6-11.7c3.3-3.1,7.2-5.5,11.7-7
			c4.5-1.5,9.5-2.3,15-2.3c5,0,9.6,0.5,13.9,1.4c4.3,1,8,2.2,10.9,3.8V119.8z M201.6,57.9c-1.2-0.5-2.8-0.9-4.7-1.3
			c-1.9-0.4-4-0.6-6.3-0.6c-2.9,0-5.7,0.5-8.2,1.4c-2.5,1-4.7,2.5-6.6,4.6c-1.8,2.1-3.3,4.7-4.3,7.9c-1.1,3.2-1.6,7-1.6,11.5
			c0,8.2,1.8,14.3,5.4,18.4c3.6,4,8.3,6.1,14.2,6.1c2.1,0,4.3-0.3,6.6-0.8c2.3-0.5,4.1-1.1,5.5-1.9V57.9z"/>
		<path fill="#1A171B" d="M252.7,23.6c0,2.4-0.9,4.4-2.6,6.1c-1.7,1.7-3.9,2.5-6.3,2.5s-4.6-0.8-6.3-2.5c-1.7-1.7-2.6-3.7-2.6-6.1
			c0-2.4,0.9-4.4,2.6-6.1c1.7-1.7,3.9-2.5,6.3-2.5s4.6,0.8,6.3,2.5C251.8,19.2,252.7,21.2,252.7,23.6z M236.1,120.1V45.7h15.2v74.4
			H236.1z"/>
		<path fill="#1A171B" d="M315.7,120.1V70.4c0-4.4-1.3-7.9-3.9-10.3c-2.6-2.5-6.5-3.7-11.7-3.7c-2.8,0-5.3,0.2-7.7,0.6
			c-2.4,0.4-4.4,0.9-5.9,1.6v61.5h-15V49.4c3.8-1.6,8-2.8,12.8-3.8c4.7-1,10-1.4,15.8-1.4c10.5,0,18.3,2.2,23.3,6.5
			c5.1,4.3,7.6,10.4,7.6,18.4v51.1H315.7z"/>
		<path fill="#1A171B" d="M403.5,116.4c-1.4,0.7-3.1,1.4-5,2.1c-2,0.6-4.1,1.2-6.5,1.7c-2.3,0.5-4.8,0.8-7.5,1.1
			c-2.6,0.3-5.2,0.4-7.8,0.4c-10.8,0-18.8-2-24.1-6.1c-5.3-4.1-8-9.8-8-17.2c0-5.2,1.3-9.3,3.8-12.6c2.5-3.2,5.9-5.7,10.1-7.6
			c4.2-1.8,8.9-3.1,14.3-3.9c5.3-0.8,10.8-1.3,16.4-1.6v-4.7c0-4.7-1.4-8-4.3-9.9c-2.9-1.9-6.7-2.8-11.5-2.8c-1.7,0-3.6,0.1-5.5,0.4
			c-1.9,0.3-3.8,0.6-5.6,1c-1.8,0.4-3.6,0.9-5.2,1.4c-1.7,0.6-3.1,1.1-4.3,1.7L349,49.4c2.9-1.3,6.8-2.5,11.5-3.6
			c4.7-1.1,9.5-1.7,14.5-1.7c4.4,0,8.4,0.5,11.9,1.4c3.5,0.9,6.6,2.4,9,4.3c2.5,2,4.4,4.6,5.7,7.8c1.3,3.2,1.9,7.1,1.9,11.7V116.4z
			 M389.2,82.7c-3.8,0.2-7.5,0.5-11.1,0.9c-3.6,0.4-6.9,1.1-9.7,2.1c-2.9,1-5.2,2.5-6.9,4.4c-1.7,1.9-2.6,4.6-2.6,7.9
			c0,4,1.5,7.1,4.4,9.3c2.9,2.3,7.3,3.4,13.1,3.4c2.4,0,4.8-0.2,7.3-0.6c2.5-0.4,4.3-0.8,5.5-1.4V82.7z"/>
	</g>
	<path clip-path="url(#SVGID_2_)" fill="#F74F2D" d="M464,30.9c0,15.2-12.3,27.5-27.5,27.5c-15.2,0-27.5-12.3-27.5-27.5
		c0-15.2,12.3-27.5,27.5-27.5C451.6,3.3,464,15.7,464,30.9"/>
</g>
<polygon fill="#FFFFFF" points="422,35.7 444.6,10.7 450.7,15.1 432,35.7 450.7,56.4 444.6,60.7 "/>
<g>
	<path fill="#F74F2D" d="M250.5,140.4c0,1-0.2,1.9-0.6,2.8c-0.4,0.9-0.9,1.6-1.7,2.2c-0.7,0.6-1.7,1.1-2.8,1.5
		c-1.1,0.3-2.4,0.5-3.8,0.5c-0.4,0-0.8,0-1.3-0.1c-0.4,0-0.8-0.1-1.1-0.1v9.2h-3.5v-22c0.8-0.4,1.8-0.7,2.8-0.9
		c1.1-0.2,2.2-0.3,3.5-0.3c2.8,0,4.8,0.6,6.3,1.9C249.8,136.5,250.5,138.2,250.5,140.4z M247,140.4c0-1.4-0.4-2.5-1.3-3.3
		s-2.1-1.1-3.7-1.1c-0.5,0-1.1,0-1.6,0.1c-0.5,0.1-0.9,0.2-1.2,0.3v8c0.3,0,0.6,0.1,1,0.1c0.4,0,0.8,0,1.2,0c1.8,0,3.1-0.4,4.1-1.1
		S247,141.7,247,140.4z"/>
	<path fill="#F74F2D" d="M267.1,155.6c-0.7,0.4-1.6,0.6-2.8,0.9c-1.2,0.2-2.4,0.3-3.7,0.3c-2.2,0-4-0.5-5.1-1.4
		c-1.2-1-1.7-2.5-1.7-4.7v-11.2h3.4v11.3c0,2.1,1.1,3.2,3.4,3.2c0.7,0,1.3,0,1.8-0.1c0.5-0.1,0.9-0.2,1.2-0.3v-14h3.4V155.6z"/>
	<path fill="#F74F2D" d="M285.4,147.6c0,1.6-0.2,3-0.6,4.1c-0.4,1.2-1,2.1-1.7,2.9s-1.6,1.3-2.6,1.7c-1,0.4-2.2,0.5-3.5,0.5
		c-1.1,0-2.2-0.1-3.2-0.3c-1-0.2-1.8-0.5-2.5-0.9v-23.9h3.4v8.2c0.4-0.2,0.9-0.4,1.5-0.5c0.6-0.1,1.2-0.2,1.8-0.2
		c1.1,0,2.1,0.2,3,0.6s1.7,0.9,2.3,1.7s1.1,1.6,1.5,2.6C285.2,145.1,285.4,146.3,285.4,147.6z M282,147.8c0-1.9-0.4-3.3-1.2-4.4
		c-0.8-1-1.9-1.6-3.3-1.6c-0.5,0-1,0.1-1.5,0.2c-0.5,0.1-0.9,0.2-1.2,0.4v11.2c0.3,0.1,0.6,0.2,1.1,0.3c0.5,0.1,0.9,0.1,1.4,0.1
		c0.7,0,1.3-0.1,1.9-0.4c0.6-0.2,1.1-0.6,1.5-1.1c0.4-0.5,0.8-1.2,1-1.9C281.9,149.9,282,148.9,282,147.8z"/>
	<path fill="#F74F2D" d="M289.1,156.5v-24.7h3.5v24.7H289.1z"/>
	<path fill="#F74F2D" d="M300.8,134.4c0,0.5-0.2,1-0.6,1.4c-0.4,0.4-0.9,0.6-1.4,0.6s-1.1-0.2-1.4-0.6c-0.4-0.4-0.6-0.8-0.6-1.4
		s0.2-1,0.6-1.4c0.4-0.4,0.9-0.6,1.4-0.6s1,0.2,1.4,0.6C300.6,133.4,300.8,133.9,300.8,134.4z M297,156.5v-17h3.5v17H297z"/>
	<path fill="#F74F2D" d="M315.3,156.5l-7-8.6h-0.1v8.6h-3.4v-24.7h3.4v15.4h0.1l6.5-7.6h4l-6.9,8l7.3,9H315.3z"/>
	<path fill="#F74F2D" d="M334.3,155.6c-0.3,0.2-0.7,0.3-1.2,0.5c-0.5,0.1-0.9,0.3-1.5,0.4c-0.5,0.1-1.1,0.2-1.7,0.3
		c-0.6,0.1-1.2,0.1-1.8,0.1c-2.5,0-4.3-0.5-5.5-1.4c-1.2-0.9-1.8-2.2-1.8-3.9c0-1.2,0.3-2.1,0.9-2.9c0.6-0.7,1.3-1.3,2.3-1.7
		c1-0.4,2-0.7,3.3-0.9c1.2-0.2,2.5-0.3,3.7-0.4v-1.1c0-1.1-0.3-1.8-1-2.3s-1.5-0.6-2.6-0.6c-0.4,0-0.8,0-1.2,0.1
		c-0.4,0.1-0.9,0.1-1.3,0.2c-0.4,0.1-0.8,0.2-1.2,0.3s-0.7,0.3-1,0.4l-0.9-2.4c0.7-0.3,1.5-0.6,2.6-0.8s2.2-0.4,3.3-0.4
		c1,0,1.9,0.1,2.7,0.3s1.5,0.5,2.1,1c0.6,0.5,1,1,1.3,1.8c0.3,0.7,0.4,1.6,0.4,2.7V155.6z M331.1,147.9c-0.9,0-1.7,0.1-2.5,0.2
		c-0.8,0.1-1.6,0.3-2.2,0.5c-0.7,0.2-1.2,0.6-1.6,1c-0.4,0.4-0.6,1-0.6,1.8c0,0.9,0.3,1.6,1,2.1c0.7,0.5,1.7,0.8,3,0.8
		c0.5,0,1.1,0,1.7-0.1s1-0.2,1.3-0.3V147.9z"/>
	<path fill="#F74F2D" d="M346.3,156.3c-0.2,0.1-0.5,0.2-0.9,0.3c-0.4,0.1-0.8,0.1-1.2,0.1c-1.5,0-2.7-0.4-3.5-1.2
		c-0.8-0.8-1.2-2.1-1.2-3.7v-9.6h-2.3v-2.6h2.3v-3.9l3.4-1v5h3.4v2.6h-3.4v9.5c0,0.8,0.2,1.3,0.7,1.7c0.4,0.3,1,0.5,1.6,0.5
		c0.4,0,0.8-0.1,1.2-0.2V156.3z"/>
	<path fill="#F74F2D" d="M353.5,134.4c0,0.5-0.2,1-0.6,1.4c-0.4,0.4-0.9,0.6-1.4,0.6s-1.1-0.2-1.4-0.6c-0.4-0.4-0.6-0.8-0.6-1.4
		s0.2-1,0.6-1.4c0.4-0.4,0.9-0.6,1.4-0.6s1,0.2,1.4,0.6C353.3,133.4,353.5,133.9,353.5,134.4z M349.7,156.5v-17h3.5v17H349.7z"/>
	<path fill="#F74F2D" d="M371.8,148c0,1.3-0.2,2.4-0.5,3.5c-0.3,1.1-0.8,2-1.4,2.8c-0.6,0.8-1.4,1.4-2.3,1.9c-0.9,0.5-2,0.7-3.2,0.7
		c-1.2,0-2.3-0.2-3.2-0.7c-0.9-0.5-1.7-1.1-2.3-1.9c-0.6-0.8-1.1-1.7-1.4-2.8c-0.3-1.1-0.5-2.3-0.5-3.5s0.2-2.4,0.5-3.5
		c0.3-1.1,0.8-2,1.4-2.8c0.6-0.8,1.4-1.4,2.3-1.9c0.9-0.5,2-0.7,3.2-0.7c1.2,0,2.3,0.2,3.2,0.7c0.9,0.5,1.7,1.1,2.3,1.9
		c0.6,0.8,1.1,1.7,1.4,2.8C371.6,145.5,371.8,146.7,371.8,148z M368.3,147.9c0-1.8-0.3-3.3-1-4.4c-0.7-1.1-1.7-1.6-3-1.6
		c-1.3,0-2.3,0.5-3,1.6c-0.7,1.1-1,2.6-1,4.4c0,1.8,0.3,3.3,1,4.4c0.7,1.1,1.7,1.7,3,1.7c1.3,0,2.3-0.6,3-1.7
		C368,151.2,368.3,149.7,368.3,147.9z"/>
	<path fill="#F74F2D" d="M385.5,156.5v-11.3c0-1-0.3-1.8-0.9-2.4c-0.6-0.6-1.5-0.9-2.7-0.9c-0.6,0-1.2,0-1.8,0.1s-1,0.2-1.4,0.4v14
		h-3.4v-16.1c0.9-0.4,1.8-0.6,2.9-0.9c1.1-0.2,2.3-0.3,3.6-0.3c2.4,0,4.2,0.5,5.3,1.5c1.2,1,1.7,2.4,1.7,4.2v11.7H385.5z"/>
	<path fill="#F74F2D" d="M404.1,151.8c0,1.5-0.6,2.8-1.7,3.7c-1.1,0.9-2.8,1.4-4.9,1.4c-1.9,0-3.7-0.4-5.3-1.2l1.2-2.6
		c0.6,0.3,1.2,0.6,2,0.8c0.7,0.2,1.4,0.3,2.1,0.3c0.9,0,1.7-0.2,2.3-0.6c0.6-0.4,0.8-1,0.8-1.7c0-0.8-0.3-1.4-0.9-1.7
		c-0.6-0.4-1.3-0.7-2.2-1c-0.6-0.2-1.1-0.4-1.7-0.7c-0.6-0.3-1.1-0.6-1.5-1c-0.5-0.4-0.8-0.8-1.1-1.4c-0.3-0.5-0.4-1.2-0.4-2
		c0-1.4,0.5-2.6,1.5-3.4s2.5-1.3,4.4-1.3c0.9,0,1.8,0.1,2.6,0.3c0.8,0.2,1.6,0.5,2.3,0.9l-1.1,2.4c-0.5-0.3-1-0.5-1.6-0.7
		c-0.6-0.2-1.2-0.3-1.9-0.3c-0.9,0-1.6,0.2-2.1,0.6c-0.5,0.4-0.7,0.9-0.7,1.5c0,0.4,0.1,0.7,0.3,1c0.2,0.3,0.4,0.5,0.7,0.7
		s0.6,0.4,1,0.5c0.4,0.1,0.7,0.3,1.1,0.4c0.6,0.2,1.2,0.5,1.8,0.7s1.1,0.6,1.6,0.9s0.8,0.8,1.1,1.4
		C403.9,150.3,404.1,150.9,404.1,151.8z"/>
</g>
<g>
	<defs>
		<rect id="SVGID_3_" y="3.3" width="464" height="193.1"/>
	</defs>
	<clipPath id="SVGID_4_">
		<use xlink:href="#SVGID_3_"  overflow="visible"/>
	</clipPath>
	<g clip-path="url(#SVGID_4_)">
		<path fill="#F74F2D" d="M243.5,188.3c-0.2,0.1-0.5,0.2-0.9,0.3c-0.4,0.1-0.8,0.1-1.2,0.1c-1.5,0-2.7-0.4-3.5-1.2
			c-0.8-0.8-1.2-2.1-1.2-3.7v-9.6h-2.3v-2.6h2.3v-3.9l3.4-1v5h3.4v2.6h-3.4v9.5c0,0.8,0.2,1.3,0.7,1.7c0.4,0.3,1,0.5,1.6,0.5
			c0.4,0,0.8-0.1,1.2-0.2V188.3z"/>
		<path fill="#F74F2D" d="M260.5,179.2c0,0.2,0,0.4,0,0.7l-11.3,1.6c0.2,1.5,0.7,2.7,1.6,3.4c0.9,0.8,2.1,1.2,3.6,1.2
			c0.9,0,1.7-0.1,2.6-0.3c0.8-0.2,1.6-0.4,2.1-0.8l1,2.6c-0.7,0.4-1.5,0.6-2.6,0.9c-1.1,0.2-2.2,0.3-3.3,0.3c-1.3,0-2.5-0.2-3.6-0.6
			c-1-0.4-1.9-1-2.6-1.8c-0.7-0.8-1.2-1.7-1.6-2.8c-0.4-1.1-0.6-2.3-0.6-3.7c0-1.3,0.2-2.5,0.5-3.6c0.3-1.1,0.9-2,1.5-2.8
			c0.7-0.8,1.5-1.4,2.4-1.8c0.9-0.4,2-0.6,3.2-0.6c1.1,0,2.1,0.2,2.9,0.5c0.9,0.3,1.6,0.8,2.2,1.5c0.6,0.7,1.1,1.4,1.4,2.4
			c0.3,0.9,0.5,2,0.5,3.1V179.2z M257.2,178.1c0-1.5-0.4-2.6-1.1-3.3c-0.7-0.7-1.6-1.1-2.7-1.1c-1.3,0-2.4,0.5-3.2,1.4
			c-0.8,1-1.2,2.3-1.3,4.1L257.2,178.1z"/>
		<path fill="#F74F2D" d="M275.3,187.6c-1.2,0.8-2.6,1.2-4.3,1.2c-0.9,0-1.9-0.2-2.8-0.5c-0.9-0.3-1.7-0.9-2.4-1.6
			c-0.7-0.7-1.3-1.6-1.7-2.8c-0.4-1.1-0.6-2.4-0.6-4s0.2-2.9,0.6-4s1-2,1.7-2.7c0.7-0.7,1.5-1.2,2.4-1.6c0.9-0.3,1.8-0.5,2.8-0.5
			c1.7,0,3.2,0.4,4.3,1.2l-1.1,2.5c-0.8-0.5-1.7-0.8-2.8-0.8c-0.6,0-1.1,0.1-1.6,0.3c-0.5,0.2-1,0.6-1.4,1.1c-0.4,0.5-0.7,1.1-1,1.9
			c-0.2,0.8-0.4,1.6-0.4,2.7c0,1,0.1,1.9,0.4,2.7c0.2,0.7,0.6,1.4,1,1.9s0.9,0.9,1.4,1.1c0.5,0.2,1.1,0.3,1.6,0.3
			c1.1,0,2-0.3,2.8-0.8L275.3,187.6z"/>
		<path fill="#F74F2D" d="M288.7,188.5v-11.3c0-1.1-0.3-1.9-1-2.4c-0.7-0.5-1.5-0.8-2.7-0.8c-0.5,0-1.1,0.1-1.6,0.2
			c-0.5,0.1-1,0.3-1.4,0.6v13.7h-3.4v-24.7h3.4v8.4c0.5-0.3,1.1-0.5,1.8-0.6c0.7-0.2,1.3-0.3,2-0.3c2,0,3.5,0.5,4.7,1.5
			c1.1,1,1.7,2.4,1.7,4.2v11.6H288.7z"/>
		<path fill="#F74F2D" d="M306.4,188.5v-11.3c0-1-0.3-1.8-0.9-2.4c-0.6-0.6-1.5-0.9-2.7-0.9c-0.6,0-1.2,0-1.8,0.1s-1,0.2-1.4,0.4v14
			h-3.4v-16.1c0.9-0.4,1.8-0.6,2.9-0.9c1.1-0.2,2.3-0.3,3.6-0.3c2.4,0,4.2,0.5,5.3,1.5c1.2,1,1.7,2.4,1.7,4.2v11.7H306.4z"/>
		<path fill="#F74F2D" d="M328.4,180c0,1.3-0.2,2.4-0.5,3.5c-0.3,1.1-0.8,2-1.4,2.8c-0.6,0.8-1.4,1.4-2.3,1.9
			c-0.9,0.5-2,0.7-3.2,0.7c-1.2,0-2.3-0.2-3.2-0.7c-0.9-0.5-1.7-1.1-2.3-1.9c-0.6-0.8-1.1-1.7-1.4-2.8c-0.3-1.1-0.5-2.3-0.5-3.5
			s0.2-2.4,0.5-3.5c0.3-1.1,0.8-2,1.4-2.8c0.6-0.8,1.4-1.4,2.3-1.9c0.9-0.5,2-0.7,3.2-0.7c1.2,0,2.3,0.2,3.2,0.7
			c0.9,0.5,1.7,1.1,2.3,1.9c0.6,0.8,1.1,1.7,1.4,2.8C328.3,177.5,328.4,178.7,328.4,180z M325,179.9c0-1.8-0.3-3.3-1-4.4
			c-0.7-1.1-1.7-1.6-3-1.6c-1.3,0-2.3,0.5-3,1.6c-0.7,1.1-1,2.6-1,4.4c0,1.8,0.3,3.3,1,4.4c0.7,1.1,1.7,1.7,3,1.7
			c1.3,0,2.3-0.6,3-1.7C324.6,183.2,325,181.7,325,179.9z"/>
		<path fill="#F74F2D" d="M332.1,188.5v-24.7h3.5v24.7H332.1z"/>
		<path fill="#F74F2D" d="M354.2,180c0,1.3-0.2,2.4-0.5,3.5c-0.3,1.1-0.8,2-1.4,2.8c-0.6,0.8-1.4,1.4-2.3,1.9
			c-0.9,0.5-2,0.7-3.2,0.7c-1.2,0-2.3-0.2-3.2-0.7c-0.9-0.5-1.7-1.1-2.3-1.9c-0.6-0.8-1.1-1.7-1.4-2.8c-0.3-1.1-0.5-2.3-0.5-3.5
			s0.2-2.4,0.5-3.5c0.3-1.1,0.8-2,1.4-2.8c0.6-0.8,1.4-1.4,2.3-1.9c0.9-0.5,2-0.7,3.2-0.7c1.2,0,2.3,0.2,3.2,0.7
			c0.9,0.5,1.7,1.1,2.3,1.9c0.6,0.8,1.1,1.7,1.4,2.8C354,177.5,354.2,178.7,354.2,180z M350.7,179.9c0-1.8-0.3-3.3-1-4.4
			c-0.7-1.1-1.7-1.6-3-1.6c-1.3,0-2.3,0.5-3,1.6c-0.7,1.1-1,2.6-1,4.4c0,1.8,0.3,3.3,1,4.4c0.7,1.1,1.7,1.7,3,1.7
			c1.3,0,2.3-0.6,3-1.7C350.4,183.2,350.7,181.7,350.7,179.9z"/>
		<path fill="#F74F2D" d="M371.3,188.4c0,2.3-0.6,4.1-1.9,5.3c-1.3,1.2-3.1,1.8-5.3,1.8c-1.3,0-2.4-0.1-3.4-0.4
			c-1-0.3-1.9-0.6-2.6-0.9l1-2.7c0.5,0.3,1.2,0.5,2.1,0.8c0.8,0.2,1.7,0.3,2.6,0.3c1.4,0,2.5-0.4,3.1-1.1c0.7-0.7,1-1.8,1-3.2v-1.3
			c-0.4,0.2-1,0.4-1.6,0.5s-1.2,0.2-1.8,0.2c-1.1,0-2.1-0.2-2.9-0.5c-0.9-0.4-1.7-0.9-2.3-1.6c-0.6-0.7-1.1-1.5-1.5-2.6
			s-0.5-2.2-0.5-3.4c0-1.5,0.2-2.7,0.6-3.8s1-2,1.7-2.7c0.7-0.7,1.6-1.2,2.7-1.6c1-0.3,2.2-0.5,3.4-0.5c1.1,0,2.2,0.1,3.2,0.3
			s1.8,0.5,2.5,0.9V188.4z M367.9,174.3c-0.3-0.1-0.6-0.2-1.1-0.3c-0.4-0.1-0.9-0.1-1.4-0.1c-0.7,0-1.3,0.1-1.9,0.3
			c-0.6,0.2-1.1,0.6-1.5,1s-0.8,1.1-1,1.8s-0.4,1.6-0.4,2.6c0,1.9,0.4,3.3,1.2,4.2c0.8,0.9,1.9,1.4,3.2,1.4c0.5,0,1-0.1,1.5-0.2
			c0.5-0.1,0.9-0.3,1.3-0.4V174.3z"/>
		<path fill="#F74F2D" d="M379.4,166.4c0,0.5-0.2,1-0.6,1.4c-0.4,0.4-0.9,0.6-1.4,0.6s-1.1-0.2-1.4-0.6c-0.4-0.4-0.6-0.8-0.6-1.4
			s0.2-1,0.6-1.4c0.4-0.4,0.9-0.6,1.4-0.6s1,0.2,1.4,0.6C379.2,165.4,379.4,165.9,379.4,166.4z M375.6,188.5v-17h3.5v17H375.6z"/>
		<path fill="#F74F2D" d="M397.4,179.2c0,0.2,0,0.4,0,0.7l-11.3,1.6c0.2,1.5,0.7,2.7,1.6,3.4c0.9,0.8,2.1,1.2,3.6,1.2
			c0.9,0,1.7-0.1,2.6-0.3c0.8-0.2,1.6-0.4,2.1-0.8l1,2.6c-0.7,0.4-1.5,0.6-2.6,0.9c-1.1,0.2-2.2,0.3-3.3,0.3c-1.3,0-2.5-0.2-3.6-0.6
			c-1-0.4-1.9-1-2.6-1.8c-0.7-0.8-1.2-1.7-1.6-2.8c-0.4-1.1-0.6-2.3-0.6-3.7c0-1.3,0.2-2.5,0.5-3.6c0.3-1.1,0.9-2,1.5-2.8
			c0.7-0.8,1.5-1.4,2.4-1.8c0.9-0.4,2-0.6,3.2-0.6c1.1,0,2.1,0.2,2.9,0.5c0.9,0.3,1.6,0.8,2.2,1.5c0.6,0.7,1.1,1.4,1.4,2.4
			c0.3,0.9,0.5,2,0.5,3.1V179.2z M394.1,178.1c0-1.5-0.4-2.6-1.1-3.3c-0.7-0.7-1.6-1.1-2.7-1.1c-1.3,0-2.4,0.5-3.2,1.4
			c-0.8,1-1.2,2.3-1.3,4.1L394.1,178.1z"/>
		<path fill="#F74F2D" d="M411.1,188.5v-11.3c0-1-0.3-1.8-0.9-2.4c-0.6-0.6-1.5-0.9-2.7-0.9c-0.6,0-1.2,0-1.8,0.1s-1,0.2-1.4,0.4v14
			H401v-16.1c0.9-0.4,1.8-0.6,2.9-0.9c1.1-0.2,2.3-0.3,3.6-0.3c2.4,0,4.2,0.5,5.3,1.5c1.2,1,1.7,2.4,1.7,4.2v11.7H411.1z"/>
	</g>
</g>
</svg>
