<?xml version="1.0" encoding="UTF-8"?><svg xmlns="http://www.w3.org/2000/svg" xmlns:xlink="http://www.w3.org/1999/xlink" fill-opacity="1" color-rendering="auto" color-interpolation="auto" text-rendering="auto" stroke="black" stroke-linecap="square" width="1045" stroke-miterlimit="10" shape-rendering="auto" stroke-opacity="1" fill="black" stroke-dasharray="none" font-weight="normal" stroke-width="1" height="695" font-family="'Dialog'" font-style="normal" stroke-linejoin="miter" font-size="12px" stroke-dashoffset="0" image-rendering="auto">
  <!--Generated by ySVG 2.5-->
  <defs id="genericDefs"/>
  <g>
    <defs id="defs1">
      <clipPath clipPathUnits="userSpaceOnUse" id="clipPath1">
        <path d="M0 0 L1045 0 L1045 695 L0 695 L0 0 Z"/>
      </clipPath>
      <clipPath clipPathUnits="userSpaceOnUse" id="clipPath2">
        <path d="M13 17 L1058 17 L1058 712 L13 712 L13 17 Z"/>
      </clipPath>
    </defs>
    <g fill="white" text-rendering="geometricPrecision" shape-rendering="geometricPrecision" transform="translate(-13,-17)" stroke="white">
      <rect x="13" width="1045" height="695" y="17" clip-path="url(#clipPath2)" stroke="none"/>
    </g>
    <g stroke-linecap="butt" transform="matrix(1,0,0,1,-13,-17)" text-rendering="geometricPrecision" font-family="sans-serif" shape-rendering="geometricPrecision" font-weight="bold" stroke-miterlimit="1.45">
      <text x="531.3252" xml:space="preserve" y="101.6699" clip-path="url(#clipPath2)" stroke="none">7</text>
      <text x="463.0518" xml:space="preserve" y="115.6387" clip-path="url(#clipPath2)" stroke="none">Sozialwissenschaften</text>
      <rect x="458" y="32" clip-path="url(#clipPath2)" fill="none" width="155" height="145" stroke-width="3"/>
      <text x="83.4756" xml:space="preserve" y="347.1699" clip-path="url(#clipPath2)" stroke="none">710</text>
      <text x="54.5889" xml:space="preserve" y="361.1387" clip-path="url(#clipPath2)" stroke="none">Allgemeines</text>
      <circle fill="none" r="68" clip-path="url(#clipPath2)" cx="96" cy="350"/>
      <text x="303.2256" xml:space="preserve" y="347.1699" clip-path="url(#clipPath2)" stroke="none">720</text>
      <text x="281.0361" xml:space="preserve" y="361.1387" clip-path="url(#clipPath2)" stroke="none">Soziologie</text>
      <circle fill="none" r="68" clip-path="url(#clipPath2)" cx="315.75" cy="350"/>
      <text x="522.9756" xml:space="preserve" y="353.1699" clip-path="url(#clipPath2)" stroke="none">730</text>
      <text x="477.1904" xml:space="preserve" y="367.1387" clip-path="url(#clipPath2)" stroke="none">Politikwissensch.</text>
      <circle fill="none" r="68" clip-path="url(#clipPath2)" cx="535.5" cy="356"/>
      <text x="742.7256" xml:space="preserve" y="353.1699" clip-path="url(#clipPath2)" stroke="none">740</text>
      <text x="730.5176" xml:space="preserve" y="367.1387" clip-path="url(#clipPath2)" stroke="none">Medien</text>
      <circle fill="none" r="68" clip-path="url(#clipPath2)" cx="755.25" cy="356"/>
      <text x="968.1621" xml:space="preserve" y="360.1543" clip-path="url(#clipPath2)" stroke="none">...</text>
      <circle fill="none" r="68" clip-path="url(#clipPath2)" cx="975" cy="356"/>
      <text x="95.4111" xml:space="preserve" y="606.7168" clip-path="url(#clipPath2)" stroke="none"> </text>
      <text x="95.4111" xml:space="preserve" y="620.6855" clip-path="url(#clipPath2)" stroke="none"> </text>
      <text x="95.4111" xml:space="preserve" y="634.6543" clip-path="url(#clipPath2)" stroke="none"> </text>
      <text x="84.9756" xml:space="preserve" y="648.623" clip-path="url(#clipPath2)" stroke="none">731</text>
      <text x="56.0889" xml:space="preserve" y="662.5918" clip-path="url(#clipPath2)" stroke="none">Allgemeines</text>
      <path fill="none" d="M97.5 564 L164 697 L31 697 Z" fill-rule="evenodd" clip-path="url(#clipPath2)"/>
      <text x="313.6611" xml:space="preserve" y="592.748" clip-path="url(#clipPath2)" stroke="none"> </text>
      <text x="313.6611" xml:space="preserve" y="606.7168" clip-path="url(#clipPath2)" stroke="none"> </text>
      <text x="313.6611" xml:space="preserve" y="620.6855" clip-path="url(#clipPath2)" stroke="none"> </text>
      <text x="313.6611" xml:space="preserve" y="634.6543" clip-path="url(#clipPath2)" stroke="none"> </text>
      <text x="303.2256" xml:space="preserve" y="648.623" clip-path="url(#clipPath2)" stroke="none">732</text>
      <text x="274.0693" xml:space="preserve" y="662.5918" clip-path="url(#clipPath2)" stroke="none">Pol. Wiss. u.</text>
      <text x="274.9863" xml:space="preserve" y="676.5605" clip-path="url(#clipPath2)" stroke="none">Pol. Bildung</text>
      <path fill="none" d="M315.75 564 L382.25 697 L249.25 697 Z" fill-rule="evenodd" clip-path="url(#clipPath2)"/>
      <text x="531.9111" xml:space="preserve" y="592.748" clip-path="url(#clipPath2)" stroke="none"> </text>
      <text x="531.9111" xml:space="preserve" y="606.7168" clip-path="url(#clipPath2)" stroke="none"> </text>
      <text x="531.9111" xml:space="preserve" y="620.6855" clip-path="url(#clipPath2)" stroke="none"> </text>
      <text x="531.9111" xml:space="preserve" y="634.6543" clip-path="url(#clipPath2)" stroke="none"> </text>
      <text x="521.4756" xml:space="preserve" y="648.623" clip-path="url(#clipPath2)" stroke="none">733</text>
      <text x="489.1436" xml:space="preserve" y="662.5918" clip-path="url(#clipPath2)" stroke="none">Pol. Theorien</text>
      <text x="493.0195" xml:space="preserve" y="676.5605" clip-path="url(#clipPath2)" stroke="none">Ideengesch.</text>
      <path fill="none" d="M534 564 L600.5 697 L467.5 697 Z" fill-rule="evenodd" clip-path="url(#clipPath2)"/>
      <text x="753.1611" xml:space="preserve" y="599.7324" clip-path="url(#clipPath2)" stroke="none"> </text>
      <text x="753.1611" xml:space="preserve" y="613.7012" clip-path="url(#clipPath2)" stroke="none"> </text>
      <text x="753.1611" xml:space="preserve" y="627.6699" clip-path="url(#clipPath2)" stroke="none"> </text>
      <text x="753.1611" xml:space="preserve" y="641.6387" clip-path="url(#clipPath2)" stroke="none"> </text>
      <text x="742.7256" xml:space="preserve" y="655.6074" clip-path="url(#clipPath2)" stroke="none">734</text>
      <text x="710.3877" xml:space="preserve" y="669.5762" clip-path="url(#clipPath2)" stroke="none">Polit. System</text>
      <path fill="none" d="M755.25 564 L821.75 697 L688.75 697 Z" fill-rule="evenodd" clip-path="url(#clipPath2)"/>
      <text x="974.4111" xml:space="preserve" y="613.7012" clip-path="url(#clipPath2)" stroke="none"> </text>
      <text x="974.4111" xml:space="preserve" y="627.6699" clip-path="url(#clipPath2)" stroke="none"> </text>
      <text x="974.4111" xml:space="preserve" y="641.6387" clip-path="url(#clipPath2)" stroke="none"> </text>
      <text x="969.6621" xml:space="preserve" y="655.6074" clip-path="url(#clipPath2)" stroke="none">...</text>
      <path fill="none" d="M976.5 564 L1043 697 L910 697 Z" fill-rule="evenodd" clip-path="url(#clipPath2)"/>
      <path fill="none" d="M458 147.7907 L155.3661 316.8387" clip-path="url(#clipPath2)"/>
      <path fill="none" d="M470.6044 177 L361.1026 299.333" clip-path="url(#clipPath2)"/>
      <path fill="none" d="M535.5 177 L535.5 288" clip-path="url(#clipPath2)"/>
      <path fill="none" d="M598.8474 177 L710.5078 304.7933" clip-path="url(#clipPath2)"/>
      <path fill="none" d="M613 148.8487 L915.9802 322.2264" clip-path="url(#clipPath2)"/>
      <path fill="none" d="M477.8805 392.1108 L122.8293 614.6258" clip-path="url(#clipPath2)"/>
      <path fill="none" d="M493.0031 409.0849 L336.1973 604.9584" clip-path="url(#clipPath2)"/>
      <path fill="none" d="M535.1284 423.999 L534.3594 564.7333" clip-path="url(#clipPath2)"/>
      <path fill="none" d="M577.9969 409.0849 L734.8027 604.9584" clip-path="url(#clipPath2)"/>
      <path fill="none" d="M593.23 391.934 L951.1187 614.7014" clip-path="url(#clipPath2)"/>
    </g>
  </g>
</svg>
