<?xml version="1.0" encoding="UTF-8"?>
<svg xmlns="http://www.w3.org/2000/svg" xmlns:xlink="http://www.w3.org/1999/xlink" fill-opacity="1" color-rendering="auto" color-interpolation="auto" text-rendering="auto" stroke="black" stroke-linecap="square" width="722" stroke-miterlimit="10" shape-rendering="auto" stroke-opacity="1" fill="black" stroke-dasharray="none" font-weight="normal" stroke-width="1" height="749" font-family="'Dialog'" font-style="normal" stroke-linejoin="miter" font-size="12px" stroke-dashoffset="0" image-rendering="auto">
  <!--Generated by ySVG 2.5-->
  <defs id="genericDefs"/>
  <g>
    <defs id="defs1">
      <clipPath clipPathUnits="userSpaceOnUse" id="clipPath1">
        <path d="M0 0 L722 0 L722 749 L0 749 L0 0 Z"/>
      </clipPath>
      <clipPath clipPathUnits="userSpaceOnUse" id="clipPath2">
        <path d="M-82 17 L640 17 L640 766 L-82 766 L-82 17 Z"/>
      </clipPath>
    </defs>
    <g fill="white" text-rendering="geometricPrecision" shape-rendering="geometricPrecision" transform="translate(82,-17)" stroke="white">
      <rect x="-82" width="722" height="749" y="17" clip-path="url(#clipPath2)" stroke="none"/>
    </g>
    <g text-rendering="geometricPrecision" stroke-miterlimit="1.45" shape-rendering="geometricPrecision" font-family="sans-serif" transform="matrix(1,0,0,1,82,-17)" stroke-linecap="butt">
      <text x="83.0879" xml:space="preserve" y="60.6543" clip-path="url(#clipPath2)" stroke="none">finiteMainVerbsRatio &lt; 0.015932 ?</text>
      <rect fill="none" x="71.5" width="233" height="48" y="32.5" clip-path="url(#clipPath2)"/>
    </g>
    <g fill="white" text-rendering="geometricPrecision" shape-rendering="geometricPrecision" transform="matrix(1,0,0,1,82,-17)" stroke="white">
      <path d="M-29.5 129 L8 199 L-67 199 Z" fill-rule="evenodd" clip-path="url(#clipPath2)" stroke="none"/>
    </g>
    <g text-rendering="geometricPrecision" stroke-miterlimit="1.45" shape-rendering="geometricPrecision" font-family="sans-serif" transform="matrix(1,0,0,1,82,-17)" stroke-linecap="butt">
      <text x="-40.082" xml:space="preserve" y="161.1699" clip-path="url(#clipPath2)" stroke="none">WG</text>
      <text x="-40.9521" xml:space="preserve" y="175.1387" clip-path="url(#clipPath2)" stroke="none">182</text>
      <path fill="none" d="M-29.5 129 L8 199 L-67 199 Z" clip-path="url(#clipPath2)" fill-rule="evenodd"/>
      <text x="142.3379" xml:space="preserve" y="168.1543" clip-path="url(#clipPath2)" stroke="none">finiteMainVerbsRatio &lt; 0.022672 ?</text>
      <rect fill="none" x="130.75" width="233" height="48" y="140" clip-path="url(#clipPath2)"/>
    </g>
    <g fill="white" text-rendering="geometricPrecision" shape-rendering="geometricPrecision" transform="matrix(1,0,0,1,82,-17)" stroke="white">
      <path d="M28.75 236.5 L66.25 306.5 L-8.75 306.5 Z" fill-rule="evenodd" clip-path="url(#clipPath2)" stroke="none"/>
    </g>
    <g text-rendering="geometricPrecision" stroke-miterlimit="1.45" shape-rendering="geometricPrecision" font-family="sans-serif" transform="matrix(1,0,0,1,82,-17)" stroke-linecap="butt">
      <text x="18.168" xml:space="preserve" y="268.6699" clip-path="url(#clipPath2)" stroke="none">WG</text>
      <text x="17.2979" xml:space="preserve" y="282.6387" clip-path="url(#clipPath2)" stroke="none">693</text>
      <path fill="none" d="M28.75 236.5 L66.25 306.5 L-8.75 306.5 Z" clip-path="url(#clipPath2)" fill-rule="evenodd"/>
      <text x="206.8379" xml:space="preserve" y="275.6543" clip-path="url(#clipPath2)" stroke="none">finiteMainVerbsRatio &lt; 0.024409 ?</text>
      <rect fill="none" x="195.25" width="233" height="48" y="247.5" clip-path="url(#clipPath2)"/>
    </g>
    <g fill="white" text-rendering="geometricPrecision" shape-rendering="geometricPrecision" transform="matrix(1,0,0,1,82,-17)" stroke="white">
      <path d="M89.5 344 L127 414 L52 414 Z" fill-rule="evenodd" clip-path="url(#clipPath2)" stroke="none"/>
    </g>
    <g text-rendering="geometricPrecision" stroke-miterlimit="1.45" shape-rendering="geometricPrecision" font-family="sans-serif" transform="matrix(1,0,0,1,82,-17)" stroke-linecap="butt">
      <text x="78.918" xml:space="preserve" y="376.1699" clip-path="url(#clipPath2)" stroke="none">WG</text>
      <text x="78.0479" xml:space="preserve" y="390.1387" clip-path="url(#clipPath2)" stroke="none">182</text>
      <path fill="none" d="M89.5 344 L127 414 L52 414 Z" clip-path="url(#clipPath2)" fill-rule="evenodd"/>
      <text x="280.2227" xml:space="preserve" y="383.1543" clip-path="url(#clipPath2)" stroke="none">finiteMainVerbsRatio &lt; 0.0295 ?</text>
      <rect fill="none" x="261" width="233" height="48" y="355" clip-path="url(#clipPath2)"/>
    </g>
    <g fill="white" text-rendering="geometricPrecision" shape-rendering="geometricPrecision" transform="matrix(1,0,0,1,82,-17)" stroke="white">
      <path d="M152.75 462.5 L190.25 532.5 L115.25 532.5 Z" fill-rule="evenodd" clip-path="url(#clipPath2)" stroke="none"/>
    </g>
    <g text-rendering="geometricPrecision" stroke-miterlimit="1.45" shape-rendering="geometricPrecision" font-family="sans-serif" transform="matrix(1,0,0,1,82,-17)" stroke-linecap="butt">
      <text x="142.168" xml:space="preserve" y="494.6699" clip-path="url(#clipPath2)" stroke="none">WG</text>
      <text x="141.2979" xml:space="preserve" y="508.6387" clip-path="url(#clipPath2)" stroke="none">693</text>
      <path fill="none" d="M152.75 462.5 L190.25 532.5 L115.25 532.5 Z" clip-path="url(#clipPath2)" fill-rule="evenodd"/>
      <text x="332.5205" xml:space="preserve" y="490.6543" clip-path="url(#clipPath2)" stroke="none">finiteMainVerbsRatio &lt; 0.0313335 ?</text>
      <rect fill="none" x="324.75" width="233" height="48" y="462.5" clip-path="url(#clipPath2)"/>
    </g>
    <g fill="white" text-rendering="geometricPrecision" shape-rendering="geometricPrecision" transform="matrix(1,0,0,1,82,-17)" stroke="white">
      <path d="M224.25 581 L261.75 651 L186.75 651 Z" fill-rule="evenodd" clip-path="url(#clipPath2)" stroke="none"/>
    </g>
    <g text-rendering="geometricPrecision" stroke-miterlimit="1.45" shape-rendering="geometricPrecision" font-family="sans-serif" transform="matrix(1,0,0,1,82,-17)" stroke-linecap="butt">
      <text x="213.668" xml:space="preserve" y="613.1699" clip-path="url(#clipPath2)" stroke="none">WG</text>
      <text x="212.7979" xml:space="preserve" y="627.1387" clip-path="url(#clipPath2)" stroke="none">695</text>
      <path fill="none" d="M224.25 581 L261.75 651 L186.75 651 Z" clip-path="url(#clipPath2)" fill-rule="evenodd"/>
      <text x="496.5566" xml:space="preserve" font-size="24px" y="602.3086" clip-path="url(#clipPath2)" stroke="none">...</text>
      <text x="269.8066" xml:space="preserve" font-size="24px" y="734.8086" clip-path="url(#clipPath2)" stroke="none">...</text>
      <path fill="none" d="M139.4419 80.5 L-14.6928 156.6815" clip-path="url(#clipPath2)"/>
      <text x="25.821" xml:space="preserve" y="104.7063" clip-path="url(#clipPath2)" stroke="none">ja</text>
      <path fill="none" d="M201.2279 80.5 L234.0221 140" clip-path="url(#clipPath2)"/>
      <text x="170.543" xml:space="preserve" y="114.6526" clip-path="url(#clipPath2)" stroke="none">nein</text>
      <path fill="none" d="M198.4686 188 L43.6252 264.1815" clip-path="url(#clipPath2)"/>
      <text x="84.3923" xml:space="preserve" y="212.2154" clip-path="url(#clipPath2)" stroke="none">ja</text>
      <path fill="none" d="M261.65 188 L297.35 247.5" clip-path="url(#clipPath2)"/>
      <text x="231.9856" xml:space="preserve" y="222.6295" clip-path="url(#clipPath2)" stroke="none">nein</text>
      <path fill="none" d="M262.1314 295.5 L104.3777 371.8038" clip-path="url(#clipPath2)"/>
      <text x="147.0467" xml:space="preserve" y="319.4098" clip-path="url(#clipPath2)" stroke="none">ja</text>
      <path fill="none" d="M326.4291 295.5 L362.8209 355" clip-path="url(#clipPath2)"/>
      <text x="297.005" xml:space="preserve" y="330.2387" clip-path="url(#clipPath2)" stroke="none">nein</text>
      <path fill="none" d="M331.981 403 L167.4088 489.7711" clip-path="url(#clipPath2)"/>
      <text x="209.6503" xml:space="preserve" y="434.9214" clip-path="url(#clipPath2)" stroke="none">ja</text>
      <path fill="none" d="M391.7325 403 L427.0175 462.5" clip-path="url(#clipPath2)"/>
      <text x="361.9234" xml:space="preserve" y="437.5633" clip-path="url(#clipPath2)" stroke="none">nein</text>
      <path fill="none" d="M401.0338 510.5 L238.4713 607.5131" clip-path="url(#clipPath2)"/>
      <text x="278.081" xml:space="preserve" y="549.9043" clip-path="url(#clipPath2)" stroke="none">ja</text>
      <path fill="none" d="M456.1523 510.5 L493.0977 570" clip-path="url(#clipPath2)"/>
      <text x="426.9383" xml:space="preserve" y="545.3546" clip-path="url(#clipPath2)" stroke="none">nein</text>
      <path fill="none" d="M466.9283 618 L322.3217 702.5" clip-path="url(#clipPath2)"/>
      <text x="340.0164" xml:space="preserve" y="658.4455" clip-path="url(#clipPath2)" stroke="none">ja</text>
    </g>
  </g>
</svg>
